<svg 
  role="img"
  aria-labelledby="errorWarningTitle errorWarningDesc"
  xmlns="http://www.w3.org/2000/svg" 
  viewBox="0 0 50 50">
  <title id="errorWarningTitle">Error/Warning Icon</title>
  <desc id="errorWarningDesc">An icon indicating an error or a warning condition.</desc>
  <path d="M22.037 7.326 5.396 36.15a3.42 3.42 0 0 0 2.963 5.13H41.64a3.42 3.42 0 0 0 2.963-5.13L27.963 7.326a3.42 3.42 0 0 0-5.926 0Z" style="fill:#fff"/><path d="M8.359 41.28h18.043c2.65 0 5.44.645 7.522-1.247 5.995-5.452 4.61-14.396.96-20.72L27.963 7.327a3.42 3.42 0 0 0-5.926 0L5.396 36.15a3.42 3.42 0 0 0 2.963 5.13Z" style="fill:#f2d491"/><path d="M45.807 37.285a5.581 5.581 0 0 0-.72-1.42h.01c-.03-.16-.16-.28-.2-.38a1.303 1.303 0 0 0-.28-.57 1.653 1.653 0 0 0-.36-.93 1.613 1.613 0 0 0-.55-.7c-.411-.51-.625-1.17-1-1.72-.058-.198-.296-.196-.4-.33a2.421 2.421 0 0 0-.4-1.05c-.058-.276-.269-.452-.31-.74.004-.177-.163-.257-.21-.42a9.754 9.754 0 0 1-.71-1.36c-.11-.24-.36-.39-.47-.63-.1-.19-.11-.44-.25-.6-.493-.364-.288-.365-.66-.72-.019-.164.05-.342-.1-.49-.24-.37-.64-.64-.85-1.03-.02-.16-.15-.28-.19-.39a1.232 1.232 0 0 0-.28-.56 1.62 1.62 0 0 0-.36-.93c-.152-.474-.634-.654-.82-1.09a9.26 9.26 0 0 0-.87-1.51c-.08-.06-.21-.06-.26-.16a2.407 2.407 0 0 0-.4-1.04c-.058-.276-.268-.465-.31-.74.002-.178-.16-.267-.21-.42a10.125 10.125 0 0 1-.72-1.37c-.11-.24-.35-.39-.46-.62a3 3 0 0 0-.25-.61 1.511 1.511 0 0 1-.51-.57.294.294 0 0 1-.14-.38c-.146-.521-.724-.815-.96-1.29-.106-.319-.15-.23-.31-.73-.352-.38-.102-.697-.52-1.15-.147-.467-.645-.65-.82-1.09-.181-.429-.517-.914-.73-1.33-.101-.261-.5-.19-.42-.52-.02-.32-.25-.54-.42-.88a.977.977 0 0 0-.22-.4 5.353 5.353 0 0 1-.43-.58 3.33 3.33 0 0 0-1.12-.66 2.776 2.776 0 0 0-1.85-.29 1.403 1.403 0 0 0-1.27.33c-.38.103-.412.386-.78.34-.641.206-.843 1.03-1.16 1.49h-.01c-.12.1-.16.27-.23.36a1.228 1.228 0 0 0-.35.53 1.587 1.587 0 0 0-.63.77 1.589 1.589 0 0 0-.33.83c-.247.616-.69 1.12-.99 1.72-.147.159-.02.357-.09.52-.343.184-.474.545-.7.87-.218.18-.262.46-.49.64a.323.323 0 0 0-.17.25 3.487 3.487 0 0 0-.46.81 4.868 4.868 0 0 0-.76 1.35 1.333 1.333 0 0 0-.49.98c-.26.276-.035.474-.41.57-.387.384-.337 1.036-.63 1.48l-.01-.01c-.13.1-.16.28-.23.37a1.249 1.249 0 0 0-.35.52c-.09.14-.26.19-.37.31a8.842 8.842 0 0 0-.53.96c-.094.863-.868 1.459-1.13 2.27.011.17.06.35-.16.41-.245.123-.681 1.112-1.17 1.53a.584.584 0 0 1-.13.26c-.331.426-.439.933-.83 1.31-.15.21-.16.49-.3.71-.12.19-.33.31-.4.52a1.572 1.572 0 0 1-.24.73c-.007.196-.088.26-.26.31-.391.37-.339 1.044-.64 1.47-.215.243-.124.257-.47.64-.156.477-.583.467-.74 1.03a1.486 1.486 0 0 0-.33.82c-.097.418-.442.688-.61 1.07a5.307 5.307 0 0 0-.46.86c-.01.11.05.22-.01.31a2.167 2.167 0 0 0-.71.91 1.07 1.07 0 0 0-.23.4 2.84 2.84 0 0 0-.3 1.96 2.753 2.753 0 0 0 .67 1.74 1.419 1.419 0 0 0 .92.94c.343.314.518.135.69.5.495.456 1.311.213 1.87.26v.01a1.286 1.286 0 0 0 .43.02 1.213 1.213 0 0 0 .63.04 1.576 1.576 0 0 0 .99.15 1.512 1.512 0 0 0 .88-.12c.653-.097 1.318.032 1.99 0 .2.042.316-.161.49-.19a2.228 2.228 0 0 0 1.1.18 6.073 6.073 0 0 1 .97.15c.343-.07.707.061 1.06-.03a5.047 5.047 0 0 0 1.55-.02 1.39 1.39 0 0 0 1.1-.06c.361.059.435-.203.7.06.523.155 1.069-.225 1.59-.19v.01a1.286 1.286 0 0 0 .43.02 1.247 1.247 0 0 0 .64.04 1.502 1.502 0 0 0 .98.15 1.505 1.505 0 0 0 .88-.12c.65-.097 1.322.032 1.99 0 .194.041.334-.16.49-.19a2.265 2.265 0 0 0 1.11.18 6.58 6.58 0 0 1 .97.15c.348-.069.696.062 1.06-.03a5.008 5.008 0 0 0 1.54-.02 1.39 1.39 0 0 0 1.1-.06c.37.06.437-.204.7.06.518.156 1.074-.224 1.6-.19v.01c.26.065.243-.02.79.09.271-.093.476.044.72.14.364.002.731-.005 1.09-.02a1.476 1.476 0 0 1 .79-.16c.443.069 1.065.015 1.52.04.208.04.327-.16.49-.19a2.055 2.055 0 0 0 1.14.16c.335.088.626-.071.96-.05.206.034.358-.133.55-.17a5.875 5.875 0 0 0 1.54-1.11 3.543 3.543 0 0 0 .44-.84 1.973 1.973 0 0 0 .37-.7c-.07-.62.059-.693-.04-1.17.056-.196.206-.35.12-.58Zm-1.31.61a1.512 1.512 0 0 1-.13.52.562.562 0 0 1-.2.54 6.136 6.136 0 0 0-.5.71 3.043 3.043 0 0 0-.76.61c-1.345.597-2.903-.059-4.31.26-.814-.017-1.637-.044-2.46.01a1.976 1.976 0 0 0-1.08.08c-.465-.188-.88.046-1.32.13a3.617 3.617 0 0 0-.66-.07 1.03 1.03 0 0 0-.6.02 3.275 3.275 0 0 0-1.43-.13c-.776-.218-1.471.148-2.38-.05-1.008.02-2.048-.078-3.07-.08a17.292 17.292 0 0 1-2.38.08c-.468.1-.938-.127-1.38.04-.333.134-.674-.1-1.04.03a1.954 1.954 0 0 1-1.2.09 1.065 1.065 0 0 0-.61.02 7.94 7.94 0 0 0-1.71-.19c-.37-.12-.754.096-1.12.07-1.006-.032-1.965-.092-2.97-.11-1.516-.043-3.025.15-4.54.01a5.115 5.115 0 0 1-.51.12 1.549 1.549 0 0 0-.6-.14.643.643 0 0 1-.64-.15 1.286 1.286 0 0 1-.38-.38c-.432-.146-.38-.7-.64-1.02-.153-.17-.06-.672-.24-1.17.151-1.462 1.503-2.482 1.93-3.86.412-.703.852-1.39 1.22-2.13a2.082 2.082 0 0 0 .47-.98c.399-.306.394-.788.55-1.21a4.119 4.119 0 0 0 .39-.54c.25-.225.219-.603.53-.78a2.833 2.833 0 0 0 .57-.92c.411-.308.472-.805.7-1.23a31.492 31.492 0 0 0 2.31-3.89c.3-.566 1.522-2.441 1.61-2.85.055-.347.429-.536.49-.92a2.021 2.021 0 0 1 .53-1.08c.254-.226.21-.608.53-.78.366-.307.429-.829.78-1.14.285-.268.288-.692.49-1.01.335-.502.631-.981.93-1.49a33.98 33.98 0 0 0 1.76-3.02c.43-.627.667-1.347 1.15-1.94a3.5 3.5 0 0 1 .16-.5c.424-.283.467-.726.67-.85a2.003 2.003 0 0 1 .71-.22.573.573 0 0 1 .57-.11c.364.131.762-.049 1.07.2.575.249.981.224 1.33.88.49.72.869 1.584 1.3 2.36a6.316 6.316 0 0 1 .8 1.24c.324.685.835 1.261 1.11 1.97.106.144.287.27.39.41.065.498.489.74.77 1.08a3.7 3.7 0 0 0 .59 1.12c.113.723.493.964.69 1.58.09.376.46.596.63.93a12.2 12.2 0 0 0 .64 1.2 35.383 35.383 0 0 0 1.92 3.38c.32.683.828 1.268 1.11 1.97.103.16.288.262.39.42.066.493.498.73.77 1.08.1.287.268.535.35.83.06.11.18.17.24.28a3.151 3.151 0 0 0 .45 1.07 1.191 1.191 0 0 1 .24.51 12.438 12.438 0 0 1 1.06 1.82 27.643 27.643 0 0 0 1.79 3.06 28.468 28.468 0 0 0 1.66 2.82c.231.189.145.526.33.77a.62.62 0 0 1 .18.62Z"/><path d="M23.263 17.555c-.085.5.293.888.26 1.375a10.067 10.067 0 0 0 .126 1.783c.116.139.245.269.108.446-.138.291.005.644-.031.969-.07.28.037.546-.043.822a.391.391 0 0 0 0 .321 3.638 3.638 0 0 0 .068.948 5.252 5.252 0 0 0 .135 1.586 2.817 2.817 0 0 0-.04.672 1.673 1.673 0 0 1 .208.761.293.293 0 0 1-.036.408c-.11.546.303 1.084.302 1.625l.16-.011-.237.017c-.001.062.153.113.158.176a2.536 2.536 0 0 1 .015.504c.028.168.15.287.099.447.03.23.2.613.483.498l.002.029.002-.03c.081-.006.16.044.242.002a.637.637 0 0 0 .257-.614c.26-.44-.053-.663.271-1.014l-.262-.019.175.013a1.48 1.48 0 0 0 .052-.44 1.34 1.34 0 0 0 .086-.643 1.692 1.692 0 0 0 .225-1 1.573 1.573 0 0 0-.061-.914c-.05-.634.14-1.386.144-2.036.078-.268-.3-.458-.059-.688.193-.334.136-1.354.392-1.938a9.582 9.582 0 0 1 .178-1.879c.043-.264-.07-.533-.036-.799a1.465 1.465 0 0 0 .017-1.126 1.23 1.23 0 0 0-.026-.526c.679-.94-.779-1.991-1.6-1.874V15.4a1.474 1.474 0 0 0-1.438.818 1.481 1.481 0 0 0-.296 1.336ZM26.31 34.108a1.38 1.38 0 0 0-.872-.954.742.742 0 0 0-.501.03 1.237 1.237 0 0 0-1.046.537 5.202 5.202 0 0 0-.295.64c-.013.064.058.131.061.189-.006.058.08.107.069.16-.115.404.176.462.422.62.065.165.226.253.341.38.071.03.156-.011.224.005a.611.611 0 0 0 .676.128.669.669 0 0 1 .347-.109c.283-.053.302-.362.427-.561a1.204 1.204 0 0 0 .147-1.065Z"/></svg>