<svg width="50" height="50" fill="none" xmlns="http://www.w3.org/2000/svg"><path d="m31.464 36.351 4.794-5 10.608 10.68s.715 4.57-3.598 4.61c-1.853-1.36-11.804-10.29-11.804-10.29zm-12.186-.83c8.62 0 15.608-7.128 15.608-15.92s-6.988-15.92-15.608-15.92c-8.62 0-15.608 7.128-15.608 15.92s6.988 15.92 15.608 15.92z" fill="#fff"/><path d="M34.533 33.361c-.863-.89-2.53 2.09-2.46 2.86.097 1.11 10.264 9.8 11.43 10 .638.08 1.864-.06 2.197-.74.333-.68-.147-1.15-.579-1.55-1.117-1.07-8.147-8.08-10.588-10.57z" fill="#088080"/><path d="M25.827 19.551c-.245-5.31-3.392-10.93-8.823-10.93-4.716.68-8.373 5.31-8.373 10.93a11.56 11.56 0 0 0 1.221 5.36 11.316 11.316 0 0 0 3.544 4.15c3.52 2.36 7.843 1 10.353-2.2a10.843 10.843 0 0 0 2.078-7.31z" fill="#8BD2D4"/><path d="M30.602 18.411a2.406 2.406 0 0 1-.236-.57 2.829 2.829 0 0 0-.225-1.34 2.471 2.471 0 0 0-.245-1.23 4.424 4.424 0 0 0-.814-1.64 6.014 6.014 0 0 0-.784-1.25 10.143 10.143 0 0 0-5.559-4c-.382 0-.676-.29-1.088-.27-.199.025-.4.025-.598 0a2.61 2.61 0 0 0-1.314-.19 2.34 2.34 0 0 0-1.225-.14 12.703 12.703 0 0 0-4.814 1.29 11.299 11.299 0 0 0-3.814 3.52c-.118.37-.49.56-.588 1a1.64 1.64 0 0 1-.304.81c-.21.299-.358.64-.431 1-.261.33-.437.722-.51 1.14a3.706 3.706 0 0 0-.265 1.67 11.83 11.83 0 0 0 0 3.43 11.168 11.168 0 0 0 2.098 4.8c.324.22.353.66.726.86.182.087.351.201.5.34.254.383.59.704.98.94.23.352.54.644.902.85.49.28.853.7 1.45.76a10.63 10.63 0 0 0 3.168 1.02 10.72 10.72 0 0 0 5.127-.55c.294-.25.726-.15 1.04-.43.146-.13.264-.32.45-.4a2.814 2.814 0 0 0 1.177-.63c.399-.12.767-.329 1.078-.61a13.076 13.076 0 0 0 3.128-3.94 11.4 11.4 0 0 0 1.078-5.14c-.147-.3.059-.71-.088-1.1zm-1.167 1.14c-.069.14 0 .3 0 .41-.076.193-.1.404-.069.61a1.52 1.52 0 0 0-.284.92 1.57 1.57 0 0 0-.078.85c-.184.689-.43 1.358-.736 2 0 .18.079.35-.137.41-.215.06-.333.51-.559.72-.225.21-.303.41-.529.55-.226.14-.177.23-.314.32-.363.34-.608.77-1.059 1a2.94 2.94 0 0 1-1.058.81c-.226.35-.383.37-.667.64-.167 0-.324-.08-.47.05a5.597 5.597 0 0 1-1.08.68c-.331.04-.66.11-.98.21a1.588 1.588 0 0 0-.98 0 1.564 1.564 0 0 0-.823.19c-.698.04-1.397.01-2.089-.09-.147.07-.303.18-.421 0s-.569-.19-.843-.32a4.379 4.379 0 0 1-.814-.46.454.454 0 0 1-.255-.08c-.421-.28-.912-.35-1.245-.75a2.51 2.51 0 0 1-1.079-.77c-.401-.1-.47-.29-.803-.45-.069-.14 0-.34-.197-.44-.303-.29-.725-.48-.98-.84-.353-.52-.196-.49-.51-.89a3.3 3.3 0 0 0-.725-1.64 10.37 10.37 0 0 1-.559-2.05c-.118-.12-.255-.24-.137-.42.137-.4 0-.86.098-1.28.001-.194.045-.385.127-.56-.059-.33.128-.66.088-1 .014-.248.088-.489.216-.7.088-.23 0-.51.098-.74.098-.23.255-.34.284-.55 0-.49.118-.49.177-.92.127-.1.284-.13.343-.33.129-.374.276-.741.441-1.1.128-.15.265-.35.314-.4.167-.118.31-.267.422-.44.541-.274.994-.7 1.303-1.23.545-.48 1.136-.903 1.765-1.26.069-.15.137-.32.343-.25.402 0 .804-.26 1.226-.32a1.5 1.5 0 0 1 .559 0c.294-.16.657-.09.98-.22.238-.06.487-.06.726 0 .245 0 .47-.13.715-.13s.402.15.608.12c.46-.2.47-.06.912-.12.137.09.216.25.412.23.196-.02.715 0 1.058.06.298.113.59.243.873.39.274 0 .402.25.569.42.166.17.598.32.892.49.262.002.515.106.706.29.313.29.784.66 1.078 1 .118.17.333.11.46.22.06.38.364.6.55.94.186.34.353.51.392.85.35.464.606.995.755 1.56.059.24.255.42.333.66.079.24 0 .44.079.62.304.36.215.46.392.85 0 .15-.177.28-.088.47.138.41.236.831.294 1.26l-.02-.05z" fill="#000"/><path d="M45.18 39.211c-.833-.85-1.637-1.81-2.53-2.55-.352-.18-.45-.61-.823-.8a2.026 2.026 0 0 1-.53-.32 4.371 4.371 0 0 0-.98-1c-.696-1.25-1.96-2-2.803-3.13-1.373-1.63-2.344-.25-3.403.85-.147.2-.313.39-.47.58h-.275c-.039 0-.068-.12-.107-.17a.276.276 0 0 0-.138-.1c-.059-.02 0-.31-.166-.33-.167-.02-.089-.07-.098-.14-.01-.07-.157-.1-.255-.12-.098-.02-.196-.3-.314-.31a1.784 1.784 0 0 0-.304-.36.896.896 0 0 1-.118-.1c-.098-.09-.303 0-.372-.22s-.235-.19-.363-.28a.643.643 0 0 0 .137-.21 1.35 1.35 0 0 1 .226-.48 2.92 2.92 0 0 0 .745-.93c.31-.207.558-.498.716-.84.225-.43.637-.73.666-1.28a15 15 0 0 0 1.187-2.77c.403-1.498.59-3.047.558-4.6-.147-.32.069-.66-.078-1-.059-.17-.186-.33-.176-.51a2.905 2.905 0 0 0-.118-1.2 2.1 2.1 0 0 0-.069-1.1c-.157-.47-.059-1-.421-1.4a17.082 17.082 0 0 0-1.079-2.81 16.4 16.4 0 0 0-2.794-3.66c-.323-.12-.412-.5-.755-.65a1.303 1.303 0 0 1-.47-.23 3.168 3.168 0 0 0-.912-.83 2.023 2.023 0 0 0-.824-.73c-.431-.23-.715-.65-1.264-.68a11.674 11.674 0 0 0-1.628-.79 13.17 13.17 0 0 0-5.598-1c-.304.15-.637-.06-.98.08-.157.06-.314.19-.49.18a2.722 2.722 0 0 0-1.177.12 1.972 1.972 0 0 0-1.078.07c-.461.16-.98.06-1.373.43-.949.282-1.87.65-2.755 1.1a16.168 16.168 0 0 0-3.588 2.88c-.118.33-.5.42-.637.77a1.484 1.484 0 0 1-.226.49c-.308.25-.562.564-.745.92-.31.207-.558.498-.716.84-.225.44-.637.74-.666 1.29a14.59 14.59 0 0 0-1.187 2.76 16.445 16.445 0 0 0-.558 4.61c.147.31-.069.65.078 1 .093.156.153.33.177.51-.04.388 0 .78.117 1.15-.076.366-.052.747.069 1.1.157.47.059 1 .421 1.4a17.12 17.12 0 0 0 1.079 2.81 16.174 16.174 0 0 0 2.794 3.69c.323.12.412.51.755.65.157.08.353.1.47.23.252.313.562.57.912.76.203.316.488.569.824.73.431.23.715.65 1.264.68.52.31 1.065.574 1.628.79a13.149 13.149 0 0 0 5.588 1c.314-.14.647.07.98-.08.152-.09.318-.15.49-.18.397.047.798.006 1.177-.12.359.08.733.056 1.079-.07.46-.16.98-.06 1.372-.43a16.31 16.31 0 0 0 2.755-1.09 17.469 17.469 0 0 0 3.167-2.43l.108.08c.107.08 0 .16 0 .22s.088.05.127.08c.04.03.059.1.128.1.068 0 .235-.08.274 0a.88.88 0 0 0 .382.33c.089-.05.196-.14.147 0-.049.14.079.09.197.36.068 0 .049.14.068.19.02.05.069 0 .069 0s.255.07.304.33c.049.07.186 0 .235.08.049.08 0 .18.088.18h.187c.061.098.134.188.215.27a13.933 13.933 0 0 0-1.647 1.94 1.332 1.332 0 0 0 .275 1.64c.235.2.568.23.755.4.29.367.637.681 1.029.93.794 1.18 2.118 1.83 3.069 2.85 1.833 1.64 3.794 3.31 5.754 4.82.393.17.589.67 1.157.74a5.77 5.77 0 0 0 1.716-.08c.431 0 .667-.44 1.088-.53a4.01 4.01 0 0 0 1.14-1.083 4.1 4.1 0 0 0 .645-1.447c.803-2.01-1.197-3.64-2.53-4.84zm-14.44-10.12c-.128.07-.304.05-.392.21-.181.347-.384.68-.608 1-.18.15-.37.287-.569.41-.117.23-.343.25-.549.32-.206.07-.5.38-.725.6-.226.22-.226.45-.47.53-.246.08-.795.48-1.138.67-.177 0-.177.27-.294.36-.618-.05-.98.43-1.785.42-.471.238-.984.38-1.51.42-.215 0-.391.23-.617.26-.225.03-.392-.07-.569 0-.362.27-.421.15-.774.33-.137 0-.245-.2-.422-.13-.372 0-.745.27-1.137.28-.265-.07-.323 0-.676-.13-.245.08-.422-.07-.618-.16s-.618-.09-.922-.11a1.136 1.136 0 0 1-.705.05c-.363-.14-.893-.24-1.265-.36-.157-.08-.314.09-.46 0-.393-.48-1.138-.49-1.55-1a4.33 4.33 0 0 1-1.363-.79c-.176-.14-.431-.15-.617-.28-.187-.13-.226-.33-.393-.4-.46-.07-.402-.2-.784-.33-.068-.13 0-.31-.206-.39-.294-.24-.715-.35-.98-.62h-.01a7.013 7.013 0 0 1-.402-.58c-.216-.11-.245-.35-.314-.56-.068-.21-.372-.51-.578-.74-.206-.23-.451-.23-.53-.47-.078-.24-.47-.82-.656-1.17 0-.18-.265-.18-.343-.3 0-.62-.432-1-.422-1.81a4.336 4.336 0 0 1-.412-1.54c0-.23-.225-.41-.255-.64-.03-.23.069-.4 0-.57-.274-.38-.157-.44-.333-.8 0-.14.196-.25.137-.43a11.625 11.625 0 0 1-.284-1.15 6.9 6.9 0 0 1 .127-.7c-.078-.24.069-.42.167-.63.098-.21.078-.63.098-.94a1.202 1.202 0 0 1 0-.72c.137-.37.245-.9.353-1.29.078-.16-.078-.32 0-.47.47-.4.48-1.16.98-1.58.158-.482.397-.932.706-1.33.128-.18.138-.44.265-.62s.324-.24.392-.41c.079-.47.196-.41.324-.8.127-.07.313 0 .392-.21.18-.347.383-.68.608-1h-.02c.18-.146.37-.28.569-.4.117-.23.343-.26.549-.33.206-.07.5-.38.725-.59.226-.21.226-.46.47-.54.393-.218.772-.459 1.138-.72.176 0 .176-.27.294-.35.618 0 .98-.44 1.785-.43.472-.238.984-.38 1.51-.42.215 0 .392-.23.617-.25.226-.02.392.07.569 0 .362-.28.421-.16.774-.34.137 0 .245.2.422.14.37-.118.746-.211 1.127-.28.23.031.46.075.686.13.245-.08.422.07.618.17s.618.08.922.1c.23-.075.476-.075.706 0 .362.14.892.25 1.264.36.157.09.314-.08.461-.05.392.48 1.137.49 1.549 1 .5.173.962.441 1.363.79.176.13.431.14.617.27.187.13.226.33.393.4.46.08.401.2.784.33.069.13 0 .32.206.4.206.08.637.33.912.55.175.204.336.422.48.65.216.12.245.35.314.56.068.21.372.51.578.75.206.24.451.22.53.47.078.25.47.81.656 1.16 0 .19.265.18.343.31 0 .62.432 1 .422 1.81a4.24 4.24 0 0 1 .412 1.54c0 .22.225.4.255.63a2.307 2.307 0 0 0 0 .58c.274.37.157.43.333.8 0 .13-.196.24-.137.42.111.375.203.755.274 1.14a6.78 6.78 0 0 1-.127.69c.078.25-.069.43-.167.63s-.078.63-.098.94a1.21 1.21 0 0 1 0 .72c-.137.37-.245.91-.353 1.29-.088.17.079.32 0 .47-.47.41-.48 1.16-.98 1.58a4.492 4.492 0 0 1-.785 1.39c-.127.18-.137.44-.264.63-.128.19-.324.23-.392.4.029.47-.089.41-.216.8zm11.078 14.76c-.117 0-.225.28-.255.31-.745-.73-1.156-.72-1.627-1.15-.47-.43-.912-.8-1.245-1.1-.147-.18-.373-.11-.53-.21-.333-.69-1.127-1.07-1.529-1.73a10.28 10.28 0 0 1-1.53-1.34 5.05 5.05 0 0 1-1.195-1 6.01 6.01 0 0 1-.932-.51c-.078-.17-.088-.36-.284-.46-.196-.1-.255-.18-.245-.14.01.04-.186-.1-.157-.21.03-.11.088-.1.167-.16.2-.12.37-.283.5-.48a3.78 3.78 0 0 0 1.264-1.15c.334-.87 1.294-1.37 1.785-2.14.049-.12 0-.26.059-.28.058-.02.058 0 .078 0 .02 0 .216 0 .255.12.608 1 1.421 1.51 1.96 2.28.423.308.793.682 1.099 1.11.311.172.607.373.882.6.069.17.059.37.245.48.324.3.735.49 1.05.78.272.356.57.69.891 1 .134.35.361.656.657.88.192.272.458.48.765.6.128.09.247.194.353.31a.992.992 0 0 1-.128.31s-.225.13-.127.32.127.16.098.22a1 1 0 0 0-.127.19c-.108 0-.05.12-.05.2 0 .08-.294.13-.294.28 0 .15 0 .12-.117.15-.118.03-.079.19-.089.3-.01.11-.127.22-.255.27-.127.05-.303.29-.44.46-.373.24-.216.41-.52.53-.304.12-.285.26-.432.36zm4.618-.64a.18.18 0 0 0-.059.19c-.235.48-.343 1-.764 1.36a1.517 1.517 0 0 1-.372.504 1.48 1.48 0 0 1-.54.306c-.255.35-.275.28-.628.45-.108 0-.166-.21-.314-.18a1.377 1.377 0 0 1-.98-.39 4.986 4.986 0 0 0-.392-.4c.127 0 .147 0 .235-.1s.167 0 .245 0c.079 0 .108-.11.167-.15.059-.04.147-.06.186-.14.04-.08 0-.3.147-.33.21-.118.386-.29.51-.5 0-.11-.108-.23.059-.19.167.04.196-.17.451-.33 0-.09.157-.1.225-.14.07-.04 0-.09.05-.12.048-.03.156-.41.372-.54.216-.13 0-.24.069-.34.068-.1.176-.12.176-.22s-.088-.16-.078-.23c.01-.07 0-.11 0-.22s.157 0 .186-.1c.167.16.368.276.588.34.089.33.363.56.461.88.098.32.108.42 0 .59z" fill="#000"/></svg>